<svg width="234" height="100" viewBox="0 0 234 100" fill="none" xmlns="http://www.w3.org/2000/svg">
<path d="M92 0C96.4183 0 100 3.58172 100 8V92C100 96.4183 96.4183 100 92 100H8C3.58172 100 0 96.4183 0 92V8C0 3.58172 3.58172 0 8 0H92ZM74.4766 28.5723C72.803 28.5724 70.618 29.2366 67.9219 30.5664C65.3185 31.8013 62.6224 33.2745 59.833 34.9844C57.1367 36.6942 54.5795 38.4035 52.1621 40.1133C51.3178 40.6999 50.5592 41.2238 49.8865 41.6851C48.711 42.4912 47.0367 41.6462 46.7227 40.2559C46.4437 38.9261 46.0246 37.6916 45.4668 36.5518C45.0019 35.3168 44.3048 34.3186 43.375 33.5586C42.5382 32.7038 41.4686 32.2764 40.167 32.2764C38.2146 32.2764 36.262 32.6561 34.3096 33.416C33.9359 33.5687 33.5679 33.7272 33.2056 33.8914C30.9519 34.9129 27.5046 33.5672 25.3838 34.8418C23.8962 35.6967 22.1761 37.4061 20.2236 39.9707C18.364 42.4406 16.3641 45.481 14.2256 49.0908C12.1801 52.7005 10.2277 56.2627 8.36816 59.7773C6.50862 63.292 4.83531 66.522 3.34766 69.4668C2.72171 70.6659 2.16149 71.7052 1.66711 72.5847C0.648609 74.3967 -0.370958 76.5715 0.56926 78.4253C0.840524 78.9601 1.20872 79.3464 1.67383 79.584C4.45998 81.0071 7.63247 78.9099 9.31187 76.2703C11.3157 73.1208 13.1861 69.9031 14.9229 66.6172C17.5263 61.7725 19.8976 57.4977 22.0361 53.793C24.2677 49.9932 26.3133 47.0955 28.1729 45.1006C29.6652 43.5034 31.0762 42.7939 32.4057 42.9723C33.2403 43.0843 34.0573 43.3261 34.8454 43.6228C35.1313 43.7305 35.4504 43.8368 35.6996 44.0135C36.0745 44.2793 36.2617 44.7368 36.2617 45.3857C36.2617 45.8607 36.1227 46.5259 35.8438 47.3809C35.5648 48.1408 35.2391 48.9955 34.8672 49.9453C34.4953 50.8953 34.1239 51.7984 33.752 52.6533C33.4048 53.4513 32.8701 55.662 32.6357 56.5C32.2638 57.7349 31.7058 59.3498 30.9619 61.3447C30.3111 63.2445 29.6139 65.2869 28.8701 67.4717C28.1263 69.5616 27.5682 71.462 27.1963 73.1719C26.9174 74.8813 26.9175 76.1636 27.1963 77.0186C27.4448 77.5264 27.9428 77.6949 28.6897 77.524C29.5832 77.3196 30.4643 77.0186 31.3809 77.0186C32.298 76.9014 32.9816 76.2757 33.3921 75.4473C34.0724 74.0747 34.9363 72.4608 35.9834 70.6064C37.471 68.1367 39.1911 65.5718 41.1436 62.9121C43.1891 60.1573 45.3281 57.4499 47.5596 54.79C49.884 52.0353 52.2088 49.5657 54.5332 47.3809C56.9506 45.1961 59.3211 43.4383 61.6455 42.1084C64.9677 40.2077 68.332 43.3174 66.9674 46.8934C66.8319 47.2485 66.6852 47.6008 66.5273 47.9502C65.5046 50.325 64.296 52.748 62.9014 55.2178C61.5997 57.5926 60.3902 60.1097 59.2744 62.7695C58.3953 64.9741 57.894 67.3543 57.7705 69.9099C57.7299 70.7503 57.6121 71.5858 57.4844 72.4174C57.2766 73.7699 57.3159 75.0663 57.6016 76.3066C57.9735 77.8264 58.624 79.2037 59.5537 80.4385C60.4835 81.6734 61.6454 82.6241 63.04 83.2891C64.5277 83.954 66.1553 84.2861 67.9219 84.2861C69.5955 84.2861 70.8973 84.191 71.8271 84.001C72.8499 83.716 74.2909 83.1459 76.1504 82.291C76.9872 81.911 78.3824 81.1983 80.335 80.1533C82.3804 79.1085 84.5187 78.0634 86.75 77.0186C88.9815 75.8786 91.0271 74.8337 92.8867 73.8838C94.8392 72.8389 96.1878 72.0795 96.9316 71.6045C97.9544 71.1295 98.6982 70.4643 99.1631 69.6094C100.043 68.1117 98.585 66.5907 96.8651 66.8332C95.3978 67.04 93.9788 67.3954 92.6084 67.8994C90.284 68.7543 87.9592 69.7041 85.6348 70.749C83.4033 71.794 81.1253 72.7447 78.8008 73.5996C77.1045 74.2235 75.3584 74.6197 73.5629 74.7882C72.2369 74.9127 70.8615 74.6924 69.7864 73.9063C69.1041 73.4074 68.5757 72.8298 68.2012 72.1738C67.6434 70.9389 67.6433 68.9441 68.2012 66.1895C68.852 63.3396 70.1072 59.3969 71.9668 54.3623C73.7779 49.6925 76.1886 43.5924 79.1995 36.0623C79.6722 34.8799 80.0303 33.5804 79.6172 32.3759C79.3451 31.5827 78.8872 30.8844 78.2432 30.2812C77.2204 29.1413 75.9642 28.5723 74.4766 28.5723Z" fill="#4460EE"/>
<path d="M137.71 50.44V71.5H132.58V58.87L127.87 71.5H123.73L118.99 58.84V71.5H113.86V50.44H119.92L125.83 65.02L131.68 50.44H137.71ZM140.379 63.1C140.379 61.38 140.699 59.87 141.339 58.57C141.999 57.27 142.889 56.27 144.009 55.57C145.129 54.87 146.379 54.52 147.759 54.52C148.939 54.52 149.969 54.76 150.849 55.24C151.749 55.72 152.439 56.35 152.919 57.13V54.76H158.049V71.5H152.919V69.13C152.419 69.91 151.719 70.54 150.819 71.02C149.939 71.5 148.909 71.74 147.729 71.74C146.369 71.74 145.129 71.39 144.009 70.69C142.889 69.97 141.999 68.96 141.339 67.66C140.699 66.34 140.379 64.82 140.379 63.1ZM152.919 63.13C152.919 61.85 152.559 60.84 151.839 60.1C151.139 59.36 150.279 58.99 149.259 58.99C148.239 58.99 147.369 59.36 146.649 60.1C145.949 60.82 145.599 61.82 145.599 63.1C145.599 64.38 145.949 65.4 146.649 66.16C147.369 66.9 148.239 67.27 149.259 67.27C150.279 67.27 151.139 66.9 151.839 66.16C152.559 65.42 152.919 64.41 152.919 63.13ZM168.12 54.52C169.3 54.52 170.33 54.76 171.21 55.24C172.11 55.72 172.8 56.35 173.28 57.13V54.76H178.41V71.47C178.41 73.01 178.1 74.4 177.48 75.64C176.88 76.9 175.95 77.9 174.69 78.64C173.45 79.38 171.9 79.75 170.04 79.75C167.56 79.75 165.55 79.16 164.01 77.98C162.47 76.82 161.59 75.24 161.37 73.24H166.44C166.6 73.88 166.98 74.38 167.58 74.74C168.18 75.12 168.92 75.31 169.8 75.31C170.86 75.31 171.7 75 172.32 74.38C172.96 73.78 173.28 72.81 173.28 71.47V69.1C172.78 69.88 172.09 70.52 171.21 71.02C170.33 71.5 169.3 71.74 168.12 71.74C166.74 71.74 165.49 71.39 164.37 70.69C163.25 69.97 162.36 68.96 161.7 67.66C161.06 66.34 160.74 64.82 160.74 63.1C160.74 61.38 161.06 59.87 161.7 58.57C162.36 57.27 163.25 56.27 164.37 55.57C165.49 54.87 166.74 54.52 168.12 54.52ZM173.28 63.13C173.28 61.85 172.92 60.84 172.2 60.1C171.5 59.36 170.64 58.99 169.62 58.99C168.6 58.99 167.73 59.36 167.01 60.1C166.31 60.82 165.96 61.82 165.96 63.1C165.96 64.38 166.31 65.4 167.01 66.16C167.73 66.9 168.6 67.27 169.62 67.27C170.64 67.27 171.5 66.9 172.2 66.16C172.92 65.42 173.28 64.41 173.28 63.13ZM187.252 49.3V71.5H182.122V49.3H187.252ZM198.589 71.74C196.949 71.74 195.469 71.39 194.149 70.69C192.849 69.99 191.819 68.99 191.059 67.69C190.319 66.39 189.949 64.87 189.949 63.13C189.949 61.41 190.329 59.9 191.089 58.6C191.849 57.28 192.889 56.27 194.209 55.57C195.529 54.87 197.009 54.52 198.649 54.52C200.289 54.52 201.769 54.87 203.089 55.57C204.409 56.27 205.449 57.28 206.209 58.6C206.969 59.9 207.349 61.41 207.349 63.13C207.349 64.85 206.959 66.37 206.179 67.69C205.419 68.99 204.369 69.99 203.029 70.69C201.709 71.39 200.229 71.74 198.589 71.74ZM198.589 67.3C199.569 67.3 200.399 66.94 201.079 66.22C201.779 65.5 202.129 64.47 202.129 63.13C202.129 61.79 201.789 60.76 201.109 60.04C200.449 59.32 199.629 58.96 198.649 58.96C197.649 58.96 196.819 59.32 196.159 60.04C195.499 60.74 195.169 61.77 195.169 63.13C195.169 64.47 195.489 65.5 196.129 66.22C196.789 66.94 197.609 67.3 198.589 67.3ZM212.471 71.74C211.571 71.74 210.831 71.48 210.251 70.96C209.691 70.42 209.411 69.76 209.411 68.98C209.411 68.18 209.691 67.51 210.251 66.97C210.831 66.43 211.571 66.16 212.471 66.16C213.351 66.16 214.071 66.43 214.631 66.97C215.211 67.51 215.501 68.18 215.501 68.98C215.501 69.76 215.211 70.42 214.631 70.96C214.071 71.48 213.351 71.74 212.471 71.74Z" fill="#4460EE"/>
</svg>
